<?xml version="1.0" encoding="utf-8"?>
<!-- Generator: Adobe Illustrator 28.0.0, SVG Export Plug-In . SVG Version: 6.00 Build 0)  -->
<svg version="1.1" id="layer" xmlns="http://www.w3.org/2000/svg" xmlns:xlink="http://www.w3.org/1999/xlink" x="0px" y="0px"
	 viewBox="0 0 652 652" style="enable-background:new 0 0 652 652;" xml:space="preserve">
<style type="text/css">
	.st0{stroke:#000000;stroke-miterlimit:10;}
</style>
<path d="M61.1,448.5c21.6,0,39.1-17.5,39.1-39.1s-17.5-39.1-39.1-39.1S22,387.8,22,409.4S39.5,448.5,61.1,448.5z"/>
<path d="M184.3,286.2c5.1,0,9.2,4.1,9.2,9.2l-0.5,74.9c0,42.7-34.3,77.5-76.9,78.2h-1.3v-78h0.3l0.3-74.9c0-5.1,4.1-9.2,9.2-9.2
	h59.8C184.3,286.4,184.3,286.2,184.3,286.2z M304.4,286.2c5.1,0,9.2,4.1,9.2,9.2v104.8c0,5.1-4.1,9.2-9.2,9.2h-59.8
	c-5.1,0-9.2-4.1-9.2-9.2V295.4c0-5.1,4.1-9.2,9.2-9.2L304.4,286.2L304.4,286.2z M398.5,285.9h1.3c38.3,0.5,69.5,31.4,70.6,69.8V400
	c0,5.1-4.1,9.2-9.2,9.2h-96.6c-5.1,0-9.2-4.1-9.2-9.2V295.1c0-5.1,4.1-9.2,9.2-9.2C364.5,285.9,398.5,285.9,398.5,285.9z
	 M556.8,408.1c-32.2-2-58-28.9-58-61.6c0-34,27.6-61.6,61.6-61.6c32.7,0,59.6,25.6,61.6,58v56c0,5.1-4.1,9.2-9.2,9.2
	C612.7,408.1,556.8,408.1,556.8,408.1z"/>
<path class="st0" d="M274.4,271.6c21.6,0,39.1-17.5,39.1-39.1s-17.5-39.1-39.1-39.1s-39.1,17.5-39.1,39.1S252.8,271.6,274.4,271.6z"
	/>
</svg>
